<svg id="Ebene_1" data-name="Ebene 1" xmlns="http://www.w3.org/2000/svg" viewBox="0 0 253.17 79.33"><path d="M19.62,71.91V66.36h-5.2c-3.35,0-4.22.23-4.74.75S9,68.5,9,70c0,1.68.11,2.6.58,3.06s1.09.52,2.25.52h1.79c1.74,0,3.12-.23,6-1.67m-.57-16.83c-.41-.34-1-.46-2.32-.46H12.86c-1.21,0-1.85.12-2.2.46s-.52,1.22-.63,3.13H1.82c.12-5.38.64-7.17,1.91-8.44S6.5,48,9.39,48h11c3.12,0,4.85.58,6,1.74,1.44,1.39,1.85,3.06,1.85,8.32V72.89h4.1v6.88H19.62V76.24c-3.81,3.12-5.14,3.59-7.86,3.59H8c-2.83,0-4.34-.35-5.61-1.62C1.24,77.11.49,75.2.49,71c0-3.93.64-6.47,2-7.8,1.5-1.51,3.75-2.14,9-2.14a37.38,37.38,0,0,1,8.2.92V59.3c0-3.12-.17-3.75-.57-4.22" transform="translate(-0.49 -0.5)"/><polygon points="33.76 36.61 33.76 43.54 38.21 43.54 38.21 72.39 33.76 72.39 33.76 79.27 51.22 79.27 51.22 72.45 46.88 72.45 46.88 36.61 33.76 36.61"/><path d="M67.26,52.19c4.11-3.7,5.38-4.27,8.33-4.27h2.66c2.77,0,4.45.57,5.66,1.79a5.25,5.25,0,0,1,1.5,2.83c4.34-4,5.67-4.62,8.68-4.62h2.65c2.78,0,4.46.57,5.67,1.79s1.85,2.95,1.85,7.63V72.89h4.1v6.88H92.29V73h3.36V58.26a3.65,3.65,0,0,0-.7-2.6c-.52-.52-1.1-.69-2.66-.69h-1.5a11.48,11.48,0,0,0-5,1.33V73h3.35v6.82H73.79V73h3.36V58.26a3.65,3.65,0,0,0-.7-2.6c-.52-.52-1.09-.69-2.66-.69h-1.5a11.48,11.48,0,0,0-5,1.33V73h3.36v6.82H54.37V72.89h4.28v-18H54.37V48H67.26Z" transform="translate(-0.49 -0.5)"/><polygon points="109.93 36.61 109.93 43.54 114.38 43.54 114.38 72.39 109.93 72.39 109.93 79.27 127.38 79.27 127.38 72.45 123.05 72.45 123.05 36.61 109.93 36.61"/><path d="M130.77,48v6.94h4.45v18h-4.45v6.88h17.4V73h-4.28V48ZM134.64,44h9.08V36.41h-9.08Z" transform="translate(-0.49 -0.5)"/><path d="M160.08,61.16h10.75c0-4.28-.29-5.67-.7-6.13s-.86-.52-2.65-.52H163.6c-1.79,0-2.37.11-2.83.57s-.64,1.45-.69,6.08m0,4.91c0,5.2.34,6.18.75,6.59s1,.58,2.77.58h4.45c1.8,0,2.26-.18,2.61-.58s.4-1.22.46-3.47h8c-.05,4.74-.57,7.17-2.14,8.73-1,1-2.31,1.85-5.66,1.85H160.77c-3.24,0-4.91-.52-6.3-2-2.08-2.08-2.89-4.56-2.89-13.93s.81-11.85,2.89-14c1.33-1.39,3.06-1.91,6.3-1.91h9.48c3.24,0,5,.52,6.36,1.91,2.08,2.08,2.54,4.8,2.54,13.93v1c0,.92-.23,1.27-1.27,1.27Z" transform="translate(-0.49 -0.5)"/><path d="M195.34,56.18V71.62a10.61,10.61,0,0,0,4.74,1.21h2.72c1.62,0,2.37-.17,2.89-.69.81-.81,1-2.2,1-8.27s-.23-7.51-1-8.26c-.52-.53-1.27-.76-2.89-.76h-2.66a11.08,11.08,0,0,0-4.8,1.33m0-4.1c4-3.47,5.32-4.16,8-4.16h2.83c3.41,0,5.15.52,6.59,2,1.85,1.85,2.6,4.63,2.6,14s-.92,12-2.83,13.93c-1.45,1.45-3.29,2-6.48,2h-2.94c-2.66,0-4.17-.58-7.75-3.65v3.59H182.45V72.89h4.28V44h-4.28V37.11h12.89Z" transform="translate(-0.49 -0.5)"/><path d="M227.43,61.16h10.75c0-4.28-.29-5.67-.69-6.13s-.87-.52-2.66-.52H231c-1.79,0-2.37.11-2.83.57s-.64,1.45-.69,6.08m0,4.91c0,5.2.34,6.18.75,6.59s1,.58,2.77.58h4.45c1.8,0,2.26-.18,2.61-.58s.4-1.22.46-3.47h8c-.05,4.74-.57,7.17-2.14,8.73-1,1-2.31,1.85-5.66,1.85H228.12c-3.24,0-4.91-.52-6.3-2-2.08-2.08-2.89-4.56-2.89-13.93s.81-11.85,2.89-14c1.33-1.39,3.06-1.91,6.3-1.91h9.48c3.24,0,5,.52,6.36,1.91,2.08,2.08,2.54,4.8,2.54,13.93v1c0,.92-.23,1.27-1.27,1.27Z" transform="translate(-0.49 -0.5)"/><path d="M235.41.88c.85-.06.72-.47,1.56-.36s0,.55,1.72,1.11c1.07.36,1.38-.25,1.88.08s.57,1,1.11,1.37c1.2.88,1.26.09,1.88.62s.27,1.07.32,1.38a1.36,1.36,0,0,0,.5.67c.28.21.28-.34.81.15s-.08.9.07,1.1.54,0,.93.59c.22.36-.15.59,0,.85.34.73.62,1.43.86,2.09.41,1.11.58,1.38,1.12,1.73a2.94,2.94,0,0,1,1,1.26c.46,1,.5,1,2.23,2,1.15.66,1.36.87,1.77,1.65a5.14,5.14,0,0,1,.48,1.13,2.29,2.29,0,0,1-.48.85,1.56,1.56,0,0,1-1.3.76,3.28,3.28,0,0,0-1.18.37,1.9,1.9,0,0,1-2.08-.09l-3,.06a15,15,0,0,0-.5,2,16,16,0,0,1-2.51,5.3,3.66,3.66,0,0,0-.67,1.76,7.2,7.2,0,0,1-2.62,4.5,2.16,2.16,0,0,0-.42,1.08,41.3,41.3,0,0,0-.78,5.33,7.87,7.87,0,0,1-.15,1.71,9.81,9.81,0,0,0,0,3.2,5.51,5.51,0,0,0,1.35,3.51c.81,1,.78,1.47-.12,1.71a1.85,1.85,0,0,1-1.27,0,1,1,0,0,1-.82-.74,4.22,4.22,0,0,0-.72-1.15c-.46-.5-.5-.63-.51-1.75a39.89,39.89,0,0,0-.62-6.08c-.14-.41-.15-.41-.15.09a10.73,10.73,0,0,1-.4,1.83,12,12,0,0,0-.44,2.91,5.16,5.16,0,0,0,.38,2.71c.34.89.4,1.22.26,1.52-.22.55-1,.65-2.1.3l-.91-.29,0-.73a2.45,2.45,0,0,0-.14-.9,2.62,2.62,0,0,1,.11-1.08,32.33,32.33,0,0,0,.47-9c-.1-2.18-.2-4-.22-4s-.78.16-1.67.39c-2,.54-4.56.6-5.25.15A3.79,3.79,0,0,0,224.1,34a9.8,9.8,0,0,1-1.44-.52l-.8-.36-.09.77a19.56,19.56,0,0,1-.38,1.93,7.39,7.39,0,0,0-.25,1.58c0,.23,0,1.28,0,2.33a9.54,9.54,0,0,0,.18,3.06,20,20,0,0,0,2.45,5.2,1.71,1.71,0,0,1,.43.65,1.7,1.7,0,0,0,.34.58c.41.5.46,1.12.11,1.27a7.18,7.18,0,0,1-1.47.13c-1.13,0-1.22,0-1.41-.39a2.11,2.11,0,0,1-.2-.74c0-.18-.12-.32-.26-.32s-.59-.62-.6-1.19a23.34,23.34,0,0,0-1.37-3c-2.24-4.32-2.16-4.13-2-5.1a7.93,7.93,0,0,0-.38-3.57l-.22-.4-.68.81a13.38,13.38,0,0,0-1.23,1.84c-.31.57-.81,1.46-1.11,2l-.48.81a.64.64,0,0,0-.06.18l.07,3.24c.07,3.13.09,3.37.46,4a3.52,3.52,0,0,1,.4,1c0,.46-1,.88-1.77.76-1.35-.18-1.32-.16-1.45-1a3.27,3.27,0,0,0-.36-1.12c-.19-.29-.22-.71-.14-2.1a25.59,25.59,0,0,0,0-2.9c0-.64-.11-1.81-.15-2.58l-.05-1.42,1-2c1-2,1-2,.88-3a11,11,0,0,0-.73-2.48c-.33-.81-.66-1.68-.73-1.95a3.8,3.8,0,0,0-.21-.62c-.11-.2-.49.41-.55.89s-.53.61-1,0a5.86,5.86,0,0,1-.39-3.75,9.08,9.08,0,0,1,2.06-3.76c3.52-3.35,4.86-3.94,9.12-4.05a30.37,30.37,0,0,1,7.23.74,17.29,17.29,0,0,0,4.07.05c1.06,0,2.23-.26,3.47-.3,2.1-.06,3.09-.34,3.28-.94A3.74,3.74,0,0,1,238.6,17a1.49,1.49,0,0,0,.44-.72.75.75,0,0,1,.32-.5,5.15,5.15,0,0,0,.8-.9,15.11,15.11,0,0,1,1-1.17l.5-.52-.33-.71c-.62-1.29,0-1.76,1.23-1,.34.22.65.37.68.33a1.5,1.5,0,0,0,0-.64c-.17-.75-1.35-1.49-2.39-1.77a14.65,14.65,0,0,0-7.07-1,9.21,9.21,0,0,0-5.64,3.62c-.5.68-.69,2.33-.9,2.23-.84-.37.3-3.42.42-3.85s-.29-.8.16-1.38,1.18-.35,1.45-.71-.26-.81.4-1.4,1,.38,1.84-.42c.6-.56.65-.81,1.24-1.06s1,.45,1.67.23.76-1,1.62-1,.46.54,1.4.65,1.06-.42,1.76-.11.66.72,1.09,1c.74.47-.44-1.07-2.53-1.81a8,8,0,0,0-3.11-.22c-3.33.19-7.24,1.07-8.11,2.93-.41.87-.91,1.69-1,1.58-.5-.36,0-3.08.88-4,.34-.36-.14-.66.34-1.32s1.15-.13,1.61-.49c.8-.64.3-1,1.16-1.43s1.45.2,2-.06.81-.72,1.34-.78a3.09,3.09,0,0,1,1.49.41c.47.18.89-.14,1.19-.16" transform="translate(-0.49 -0.5)"/></svg>